<svg id="Layer_1" data-name="Layer 1" xmlns="http://www.w3.org/2000/svg" viewBox="0 0 137.02 42.39"><title>end_of_para</title><path d="M136.81,234.52a71.26,71.26,0,0,1,15.56-22.24,73.59,73.59,0,0,1,23-15.29,60.56,60.56,0,0,1,27.48-4.7c9.33.64,18.6,4.11,25.27,10.24a59.44,59.44,0,0,0-25.35-3.95,75.9,75.9,0,0,0-24.34,5.81,103.11,103.11,0,0,0-22,12.66A172,172,0,0,0,136.81,234.52Z" transform="translate(-136.81 -192.14)" style="fill:#ed1c24"/><path d="M182.49,234.52A71.26,71.26,0,0,1,198,212.28a73.59,73.59,0,0,1,23-15.29,60.56,60.56,0,0,1,27.48-4.7c9.33.64,18.6,4.11,25.27,10.24a59.44,59.44,0,0,0-25.35-3.95,75.9,75.9,0,0,0-24.34,5.81,103.11,103.11,0,0,0-22,12.66A172,172,0,0,0,182.49,234.52Z" transform="translate(-136.81 -192.14)" style="fill:#ed1c24"/></svg>