<svg id="Layer_1" data-name="Layer 1" xmlns="http://www.w3.org/2000/svg" viewBox="0 0 473.89 114.39"><title>top_to_btm</title><path d="M512,403.35a96.58,96.58,0,0,1-4.46,12.25c-2.68-13.73-17-20.14-29.79-21.16-8.81-.71-17.8.08-26.62.35l-27,.83L313.24,399,90.49,405.86l-15,.46c-4.15.13-8.79.68-12.87-.34-8.82-2.22-7.45-13-7.33-20.08a410.6,410.6,0,0,1,5.76-61.83c1.07-6.29-8.57-9-9.64-2.66a431.62,431.62,0,0,0-5.79,53.75c-.55,12.8-3.67,33,11.06,39.34,6.78,2.9,14.65,2,21.81,1.73l28-.86,56.94-1.75,224.75-6.9,62.93-1.93c13.57-.42,42.27-5.2,46.63,12.87a58.45,58.45,0,0,0-9.3-5.47c-2.9-1.36-5.44,2.95-2.52,4.32a54.82,54.82,0,0,1,16.84,12.19,2.52,2.52,0,0,0,3.93-.51,101.72,101.72,0,0,0,10.13-23.51C517.67,401.58,512.85,400.25,512,403.35Zm-8,19.4,0,.08-.05-.05Z" transform="translate(-42.99 -315.03)" style="fill:#ed1c24"/><path d="M512,403.35a96.58,96.58,0,0,1-4.46,12.25c-2.68-13.73-17-20.14-29.79-21.16-8.81-.71-17.8.08-26.62.35l-27,.83L313.24,399,90.49,405.86l-15,.46c-4.15.13-8.79.68-12.87-.34-8.82-2.22-7.45-13-7.33-20.08a410.6,410.6,0,0,1,5.76-61.83c1.07-6.29-8.57-9-9.64-2.66a431.62,431.62,0,0,0-5.79,53.75c-.55,12.8-3.67,33,11.06,39.34,6.78,2.9,14.65,2,21.81,1.73l28-.86,56.94-1.75,224.75-6.9,62.93-1.93c13.57-.42,42.27-5.2,46.63,12.87a58.45,58.45,0,0,0-9.3-5.47c-2.9-1.36-5.44,2.95-2.52,4.32a54.82,54.82,0,0,1,16.84,12.19,2.52,2.52,0,0,0,3.93-.51,101.72,101.72,0,0,0,10.13-23.51C517.67,401.58,512.85,400.25,512,403.35Zm-8,19.4,0,.08-.05-.05Z" transform="translate(-42.99 -315.03)" style="fill:none"/><path d="M503.15,420.46l-.06-.18.7,1.94-.78-2.14,0,.07.06.17Z" transform="translate(-42.99 -315.03)" style="fill:#ed1c24"/><polygon points="460.48 106.33 460.42 106.17 460.56 106.56 460.48 106.33" style="fill:#ed1c24"/><path d="M503.46,421.35c.24.67,0-.11,0,.13l.06.15-.19-.54Z" transform="translate(-42.99 -315.03)" style="fill:#ed1c24"/><path d="M502.94,419.9l0,.08,0-.07Z" transform="translate(-42.99 -315.03)" style="fill:#ed1c24"/><path d="M502.95,419.91Z" transform="translate(-42.99 -315.03)" style="fill:#ed1c24"/><path d="M503,420.06l-.08-.23-.11-.3Z" transform="translate(-42.99 -315.03)" style="fill:#ed1c24"/><path d="M503.17,420.55l0-.1Z" transform="translate(-42.99 -315.03)" style="fill:#ed1c24"/><path d="M503.06,420.25l.07.21,0-.08Z" transform="translate(-42.99 -315.03)" style="fill:#ed1c24"/><path d="M503.1,420.35l.17.47Z" transform="translate(-42.99 -315.03)" style="fill:#ed1c24"/><path d="M503.71,422l.07.2-.08-.23C503.74,422.13,503.64,421.83,503.71,422Z" transform="translate(-42.99 -315.03)" style="fill:#ed1c24"/><path d="M502.87,419.72l.2.56-.06-.16Z" transform="translate(-42.99 -315.03)" style="fill:#ed1c24"/><path d="M503.07,420.28l.09.25Z" transform="translate(-42.99 -315.03)" style="fill:#ed1c24"/><polygon points="460.45 106.27 460.26 105.75 460.45 106.28 460.45 106.27" style="fill:#ed1c24"/><polygon points="459.87 104.67 459.75 104.34 459.93 104.84 459.87 104.67" style="fill:#ed1c24"/><path d="M502.88,419.76l-.23-.63.18.5Z" transform="translate(-42.99 -315.03)" style="fill:#ed1c24"/><path d="M502.94,419.93l-.11-.31Z" transform="translate(-42.99 -315.03)" style="fill:#ed1c24"/><path d="M503.13,420.46,503,420l.14.4Z" transform="translate(-42.99 -315.03)" style="fill:#ed1c24"/><path d="M503.14,420.46h0v0Z" transform="translate(-42.99 -315.03)" style="fill:#ed1c24"/><path d="M503.13,420.46h0Z" transform="translate(-42.99 -315.03)" style="fill:#ed1c24"/><path d="M503.31,420.94l.29.81Z" transform="translate(-42.99 -315.03)" style="fill:#ed1c24"/><path d="M503.31,421l0,.09-.13-.37Z" transform="translate(-42.99 -315.03)" style="fill:#ed1c24"/><polygon points="460.37 106.06 460.32 105.93 460.31 105.9 460.37 106.06" style="fill:#ed1c24"/><path d="M503.08,420.31l.08.22,0,.12Z" transform="translate(-42.99 -315.03)" style="fill:#ed1c24"/><path d="M503.12,420.42v0Z" transform="translate(-42.99 -315.03)" style="fill:#ed1c24"/><path d="M503.15,420.52l0,.07,0-.07Z" transform="translate(-42.99 -315.03)" style="fill:#ed1c24"/><path d="M503.22,420.72l-.05-.15,0,.07Z" transform="translate(-42.99 -315.03)" style="fill:#ed1c24"/><path d="M503,420.12l.08.22Z" transform="translate(-42.99 -315.03)" style="fill:#ed1c24"/><path d="M503.09,420.33v0Z" transform="translate(-42.99 -315.03)" style="fill:#ed1c24"/><path d="M503.09,420.33l.09.25,0-.13Z" transform="translate(-42.99 -315.03)" style="fill:#ed1c24"/><path d="M504.07,423.11c-.13-.37-.25-.72-.11-.32l-.78-2.19.19.53.29.81-.12-.33L504,423l-.08-.24Z" transform="translate(-42.99 -315.03)" style="fill:#ed1c24"/><path d="M503.19,420.63l0,0-.18-.51.16.45,0,.05Z" transform="translate(-42.99 -315.03)" style="fill:#ed1c24"/><path d="M503.18,420.59l.36,1-.18-.52-.16-.46,0-.11-.07-.19v0h0l0,.05h0l.05.15-.05-.15,0-.06h0l.08.22C503.19,420.64,503.19,420.63,503.18,420.59Z" transform="translate(-42.99 -315.03)" style="fill:#ed1c24"/><path d="M503.91,422.62l0-.09Z" transform="translate(-42.99 -315.03)" style="fill:#ed1c24"/><path d="M503.82,422.37l-.06-.18.12.33-.17-.49,0,.06-.25-.7Z" transform="translate(-42.99 -315.03)" style="fill:#ed1c24"/><path d="M503.53,421.58l.07.2.13.35-.08-.21Z" transform="translate(-42.99 -315.03)" style="fill:#ed1c24"/><polygon points="460.09 105.29 459.93 104.86 460.15 105.47 460.09 105.29" style="fill:#ed1c24"/><polygon points="460.1 105.34 459.97 104.97 460.05 105.19 460.1 105.34" style="fill:#ed1c24"/><path d="M505.56,421.1l.08-.08Z" transform="translate(-42.99 -315.03)" style="fill:#ed1c24"/><path d="M505.58,421.08l-.13.14Z" transform="translate(-42.99 -315.03)" style="fill:#ed1c24"/><path d="M503.08,420.42l-.16-.47.14.41Z" transform="translate(-42.99 -315.03)" style="fill:#ed1c24"/><path d="M504,422.73l.09-.1-.29.3Z" transform="translate(-42.99 -315.03)" style="fill:#ed1c24"/><path d="M505.21,421.43l-.19.2Z" transform="translate(-42.99 -315.03)" style="fill:#ed1c24"/><path d="M505.9,420.78l.31-.32Z" transform="translate(-42.99 -315.03)" style="fill:#ed1c24"/><path d="M503.14,420.53l-.09-.25Z" transform="translate(-42.99 -315.03)" style="fill:#ed1c24"/><path d="M502.38,424.43l.18-.19Z" transform="translate(-42.99 -315.03)" style="fill:#ed1c24"/><path d="M503,420.28l0,.1,0-.1C503,420.1,502.95,420,503,420.28Z" transform="translate(-42.99 -315.03)" style="fill:#ed1c24"/><path d="M501.79,421.59l0,0Z" transform="translate(-42.99 -315.03)" style="fill:#ed1c24"/><path d="M505.65,423.66l0,0Z" transform="translate(-42.99 -315.03)" style="fill:#ed1c24"/><path d="M503,420.19Z" transform="translate(-42.99 -315.03)" style="fill:#ed1c24"/><path d="M503.6,421.81l.07.2Z" transform="translate(-42.99 -315.03)" style="fill:#ed1c24"/><path d="M503.94,422.83h0Z" transform="translate(-42.99 -315.03)" style="fill:#ed1c24"/><path d="M503.09,420.38l0-.12Z" transform="translate(-42.99 -315.03)" style="fill:#ed1c24"/><path d="M503,420.19v0Z" transform="translate(-42.99 -315.03)" style="fill:#ed1c24"/><path d="M503,420.22l0,0,0-.06Z" transform="translate(-42.99 -315.03)" style="fill:#ed1c24"/><path d="M502.8,422.18l0,0Z" transform="translate(-42.99 -315.03)" style="fill:#ed1c24"/><path d="M505.27,421.32l-.74,3.35.72-3.32Z" transform="translate(-42.99 -315.03)" style="fill:#ed1c24"/><path d="M505.5,421.09l-.25.26-.86.91Z" transform="translate(-42.99 -315.03)" style="fill:#ed1c24"/><path d="M505.66,421l.27-.28.67-.7-1,1.08.2-.21,0,0-.55.57.32-.33-.23.24.16-.17-.08.08,0,0-.47.49.22-.23-.23.24.45-.46c.94-1-.24.25.31-.33l.12-.12.67-.7-1.07,1.12-.09.09.23-.24.44-.46-.55.58.67-.71-.63.66-.28.29.4-.42-.35.37.17-.18-.56.59c-.49.51.71-.75.16-.17l.44-.46-.75.78.29-.3-1,1.1-.37.39-.24.25.41-.43-.11.11.66-.7-.27.29.82-.86-.12.12.18-.19-.16.17.49-.52-.2.2.31-.32L504,422.73l1-1.07c-.45.48.19-.2.1-.1l.32-.34-.41.43.41-.43-.67.7.41-.43-.37.39.09-.09.16-.17h0l-.59.61.83-.87-1,1-.49.52v-.46l-.06-.17-.12-.34.93,2.73c0,.1.07.21,0,0l-.36-1.06.37,1.07-.41-1.2.41,1.18-.36-1.06.41,1.2c-.07-.21,0,0,0-.09l-.09-.25L504,423l.51,1.49-1-3,.11.31-.12-.35,1.1,3.22.12.34.16.46.07.19-.4-1.17.22.66-.58-1.69.46,1.34-.09-.26.12.34c.08.24-.29-.84-.08-.24l.16.44-1.22-3.51.37,1.05.64,1.84-.16-.46.16.46-.19-.54c-.06-.18,0,.13,0,.1l-.55-1.6.17.47.13.35.22.62-.12-.35.26.76-.26-.75c-.2-.58,0-.11,0,.12l-.7-2,.14.4c.05.14-.49-1.39-.28-.82l.48,1.37-.11-.3.09.24.05.15.19.51-.19-.55,0,.07-.27-.76-.18-.51.2.58-.06-.17c-.09-.26.28.78,0,0l-.14-.4-.25-.72-.21-.6.3.84-.35-1,.1.27.06.17h0v0h0l.1.29.23.65-.15-.42.12.34-.34-1v0l-.06-.15,0,.14.09.26,0-.11c0-.05.24.7,0-.06l0,.12-.13-.37c0,.13-.13-.37,0,0-.34-1-.08-.21-.14-.39l.17.48.1.3.15.42c.12.35-.11-.3-.09-.26-.06-.16,0-.12,0,0-.33-1,.24.7,0,0,.05.15,0,.1,0,0v0h0l-.08-.23.08.23.06.17-.16-.46h0l.19.56.09.27-.19-.54.37,1.09-.06-.16c0-.09-.06-.18,0,0l-.2-.58.27.78-.34-1,0,.12-.64,3.14.1-.1.1-.1.34-.36-.27.29.15-.16-.55.59.26-.27-.46.49c.19-.19-.3.32.23-.23l-.39.41.05-.05-.24.25,1.17-1.22.14-.14-.43.45s-.26.28.18-.18l0,0,0,0,.07-.08.18-.19-.05.06-.25.27.33-.35c.71-.75-.42.44-.15.16l.19-.2-1.06,1.11-.15.15.54-.56-.64.67c-.19.2.76-.79.31-.32l.5-.52c.07-.07-.68.72-.11.12l-.14.15.55-.58-.5.53.06-.06-.11.11.44-.45-.23.24.36-.37-.34.36h0l0,0,0,0,2.68-.4.11.06c.14.07.25.13,0,0l.19.11c-.51-.28,1.21.65-.37-.21l-.39-.21-1-.52.56.3-.08,0,.86.46.46.23-.64-.35,0,0,.48.26-.44-.24.76.42,0,0-.08,0-.51-.28.42.23h0l.06,0-.51-.28-.55-.3c.89.48.32.17.6.32l-.32-.18-.61-.33,1.36.74-.93-.51.72.39c-.45-.25.3.16.15.07l-.62-.34.77.42-.35-.2-.38-.2c.76.4-.61-.35.81.42l-.34-.19-.59-.32.58.31-.59-.33.1.06-2.3-1.25c.75.41-1.11-.6,0,0l-.47-.25.27.15-.09,0-.51-.27.42.23-.29-.16.73.4-1-.53.48.26-.26-.14.34.18-.6-.33-.08,0c-.31-.17.1.06,0,0l.16.09.43.24.2.11c.36.2-.22-.12,0,0l0,0,.27.15-.7-.38,1,.57-.33-.18.53.29-.87-.47c-.71-.39.72.4-.32-.17l.69.38.58.32-1.14-.62-.06,0c-.23-.12.31.17-.06,0l.66.36-.16-.09.6.33-.43-.23-.08,0-.68-.37-.25-.13.61.34-.42-.23.25.14-.54-.3c.46.25-.4-.22-.15-.08l.81.44-.89-.48.44.24-.47-.25.68.37.37.2-.42-.23.55.3-.59-.32.15.08-.48-.26.13.07.78.43-.34-.19-.21-.11-.4-.22c-.29-.16-.06,0-.06,0l.1.05.59.32-.41-.22.28.15-.86-.47.38.21-.54-.29.22.12.2.11h0l4.23-.65,0,0-.14.15c.06-.07.39-.41,0,0l.49-.51-.8.83.55-.58-.35.36Zm-.23.21.09-.09Zm-.82.82-.07.07Zm-1.45-1.49v0Zm.07.2-.07-.19,0,.09Zm2.42,3-.11-.06Z" transform="translate(-42.99 -315.03)" style="fill:#ed1c24"/><path d="M505.06,421.58l-.18.19Z" transform="translate(-42.99 -315.03)" style="fill:#ed1c24"/><polygon points="462.85 105.81 462.84 105.81 462.9 105.75 462.85 105.81" style="fill:#ed1c24"/><path d="M504.55,424.63l-.08-.23Z" transform="translate(-42.99 -315.03)" style="fill:#ed1c24"/><path d="M503,420l0,.12.05.15Z" transform="translate(-42.99 -315.03)" style="fill:#ed1c24"/><path d="M504,422.8l0-.06-.08-.21Z" transform="translate(-42.99 -315.03)" style="fill:#ed1c24"/><path d="M503.49,421.5l.07.18h0Z" transform="translate(-42.99 -315.03)" style="fill:#ed1c24"/><path d="M503.55,421.67h0C503.47,421.44,503.53,421.61,503.55,421.67Z" transform="translate(-42.99 -315.03)" style="fill:#ed1c24"/><path d="M503.14,420.51l-.12-.33Z" transform="translate(-42.99 -315.03)" style="fill:#ed1c24"/><polygon points="460.95 107.73 460.78 107.26 460.91 107.64 460.95 107.73" style="fill:#ed1c24"/><path d="M503.81,422.42l0,.13-.06-.16S503.76,422.28,503.81,422.42Z" transform="translate(-42.99 -315.03)" style="fill:#ed1c24"/><path d="M503.8,422.38l0-.08Z" transform="translate(-42.99 -315.03)" style="fill:#ed1c24"/><polygon points="461 107.87 460.96 107.77 460.95 107.74 461 107.87" style="fill:#ed1c24"/><path d="M503.77,422.33l0,.14.07.2Z" transform="translate(-42.99 -315.03)" style="fill:#ed1c24"/><path d="M504.23,423.62l-.13-.36.21.59Z" transform="translate(-42.99 -315.03)" style="fill:#ed1c24"/><path d="M504.27,423.76l.15.43Z" transform="translate(-42.99 -315.03)" style="fill:#ed1c24"/><polygon points="461 107.99 461 107.99 460.67 107.02 461 107.99" style="fill:#ed1c24"/><path d="M504.77,425.33c.08.23-.2-.59-.1-.31l-.15-.43Z" transform="translate(-42.99 -315.03)" style="fill:#ed1c24"/><path d="M504.52,424.59l0-.15Z" transform="translate(-42.99 -315.03)" style="fill:#ed1c24"/><polygon points="463.14 108.89 463.32 108.99 463.02 108.83 463.14 108.89" style="fill:#ed1c24"/><path d="M505.47,423.56l.57.31-1-.54.51.28Z" transform="translate(-42.99 -315.03)" style="fill:#ed1c24"/><path d="M506.33,420.28l-.11.11-.14.15Z" transform="translate(-42.99 -315.03)" style="fill:#ed1c24"/><polygon points="463.01 105.61 463.02 105.6 462.61 106.03 463.01 105.61" style="fill:#ed1c24"/><path d="M506.53,420.11l-.06.06C506.54,420.09,506,420.64,506.53,420.11Z" transform="translate(-42.99 -315.03)" style="fill:#ed1c24"/><path d="M514.15,403.83h0l.11.09c.1.06,0,0,.08,0a.3.3,0,0,0,.12.08l.25.08s0,0,0,0l-.22-.1a2,2,0,0,1-.21-.12l-.08-.07h0l0,0h0l0,0Z" transform="translate(-42.99 -315.03)" style="fill:#ed1c24"/><path d="M506.85,424.84l.09-.53-.42,1-.21.49-.14.35a5.68,5.68,0,0,1-.63,1.33,4.63,4.63,0,0,0,.61-1.14l.29-.63Z" transform="translate(-42.99 -315.03)" style="fill:#ed1c24"/><path d="M487.76,415.75a56.34,56.34,0,0,0,5.65,3.51,37.53,37.53,0,0,1,6.71,5l.5.67c.67.37,1.35.74,2,1.13A52.9,52.9,0,0,0,495,420C492.28,418.21,489.62,416.79,487.76,415.75Z" transform="translate(-42.99 -315.03)" style="fill:#ed1c24"/><path d="M491.62,417.3c-.3-.33.38,0,.44,0s-.44-.28-3.21-1.64l.48.33C489.83,416.27,490.51,416.63,491.62,417.3Z" transform="translate(-42.99 -315.03)" style="fill:#ed1c24"/><path d="M489.34,416c-2.42-1.23,1.46,1,0,0Z" transform="translate(-42.99 -315.03)" style="fill:#ed1c24"/><path d="M498.24,411.55c.41.63.82,1.27,1.17,1.93a19.07,19.07,0,0,1,.91,2.05,12.57,12.57,0,0,0-.81-2.54c-.41-.86-.69-1.45-.27-.81-1.22-2.05-2-2.68-2-2.63s.07.22.27.57Z" transform="translate(-42.99 -315.03)" style="fill:#ed1c24"/><path d="M495.19,408.62a16.63,16.63,0,0,1,1.61,1.6,3.87,3.87,0,0,0-.49-.65A5.33,5.33,0,0,0,495.19,408.62Z" transform="translate(-42.99 -315.03)" style="fill:#ed1c24"/><path d="M499.41,414.3a17,17,0,0,0-2.61-4.08,3.58,3.58,0,0,0,1.33,1.79c-.19-.12-.12,0,.13.37A12.42,12.42,0,0,1,499.41,414.3Z" transform="translate(-42.99 -315.03)" style="fill:#ed1c24"/><path d="M500.16,416.91l0,.15,1.62,7.31-5.58-4.64c-1.54-1.28-3.55-2.7-.44-.91-2.88-1.92-4.28-2.45-4.13-2.25s1.78,1.24,4.57,3.17l6.06,4.2-2.07-6.88Z" transform="translate(-42.99 -315.03)" style="fill:#ed1c24"/><path d="M486.18,415.8c.81.47,1.65,1,2.45,1.46q1.15.47,2.28,1c-.57-.26-1.74-1-2.8-1.56A6.35,6.35,0,0,0,486.18,415.8Z" transform="translate(-42.99 -315.03)" style="fill:#ed1c24"/><path d="M475.3,400.84c-.25.14,1.29.48,1.57.72,1,0,1.94.08,2.92.15C478.31,401.37,475.49,401.06,475.3,400.84Z" transform="translate(-42.99 -315.03)" style="fill:#ed1c24"/><path d="M476.87,401.55c-1.45,0-2.89,0-4.32,0C476.38,401.74,477.1,401.76,476.87,401.55Z" transform="translate(-42.99 -315.03)" style="fill:#ed1c24"/><path d="M494.1,408.68a16.49,16.49,0,0,1,4.81,5.92,16.77,16.77,0,0,0-2.51-3.87,17.46,17.46,0,0,0-3.43-2.95C493.35,408.08,493.74,408.35,494.1,408.68Z" transform="translate(-42.99 -315.03)" style="fill:#ed1c24"/><polygon points="416.02 86.05 418.38 85.55 414.19 86.34 416.02 86.05" style="fill:#ed1c24"/><path d="M448.59,401.67c1.74-.34-2.41-.42-.57-.65-2.86.14-5.3.47-7.49.76A61.93,61.93,0,0,1,448.59,401.67Z" transform="translate(-42.99 -315.03)" style="fill:#ed1c24"/><path d="M436.84,402.21c1.17-.11,2.37-.27,3.69-.44C439.29,401.88,438.07,402,436.84,402.21Z" transform="translate(-42.99 -315.03)" style="fill:#ed1c24"/><path d="M465.31,401.55a11.1,11.1,0,0,0-3.34-.28l1.68.34Z" transform="translate(-42.99 -315.03)" style="fill:#ed1c24"/><path d="M463.71,401.63h-.06l-3.57.17Z" transform="translate(-42.99 -315.03)" style="fill:#ed1c24"/><path d="M465.73,401.54h-.42A.63.63,0,0,0,465.73,401.54Z" transform="translate(-42.99 -315.03)" style="fill:#ed1c24"/><path d="M483.77,403.32c-2.58-.42-7.78-.73-2.83.31C482.78,403.66,479.92,402.88,483.77,403.32Z" transform="translate(-42.99 -315.03)" style="fill:#ed1c24"/><path d="M467.81,402c1.5,0,3,0,4.5.1-.08-.11-.9-.3.35-.39C471,401.8,469.41,401.88,467.81,402Z" transform="translate(-42.99 -315.03)" style="fill:#ed1c24"/><polygon points="422.63 87.18 424.82 86.99 423.15 87 422.63 87.18" style="fill:#ed1c24"/><path d="M444.42,402.38c-1.9.24-4,.32-6.35.43,2.53,0,5.15,0,7.63-.11C446,402.56,447.13,402.28,444.42,402.38Z" transform="translate(-42.99 -315.03)" style="fill:#ed1c24"/><path d="M453.76,402.17l-.42,0C453.6,402.24,453.8,402.24,453.76,402.17Z" transform="translate(-42.99 -315.03)" style="fill:#ed1c24"/><path d="M414.85,403.52l.37.07.08-.08Z" transform="translate(-42.99 -315.03)" style="fill:#ed1c24"/><path d="M446.13,402.77a22.69,22.69,0,0,0,4.11-.28c-1.42.09-2.92.16-4.54.21C445.55,402.77,445.52,402.81,446.13,402.77Z" transform="translate(-42.99 -315.03)" style="fill:#ed1c24"/><path d="M430.37,402.61c1,.06,2.12.1,3.3.13A17.64,17.64,0,0,0,430.37,402.61Z" transform="translate(-42.99 -315.03)" style="fill:#ed1c24"/><path d="M452.7,402.13l.28,0C452.37,402,452.45,402.08,452.7,402.13Z" transform="translate(-42.99 -315.03)" style="fill:#ed1c24"/><path d="M452.7,402.13c-1,.11-1.68.24-2.46.36,1.17-.07,2.18-.16,3.1-.27A5.79,5.79,0,0,1,452.7,402.13Z" transform="translate(-42.99 -315.03)" style="fill:#ed1c24"/><path d="M407.9,406.48c.32-.41,5.31-.93,9.63-.63,4.23-.43,1.42-1.64-2.31-2.26-.13.18-.12.34-4.48.7,1.54.17,9.71.21,6,.68-5.78.38-4.74,0-7.56-.12,2.41.42-7.34.94-6.06,1.63l5.06-.41C408.32,406.18,406.49,406.42,407.9,406.48Z" transform="translate(-42.99 -315.03)" style="fill:#ed1c24"/><path d="M423.55,403.37l1.8-.1c-2.05,0-3.52-.12-6.23-.35-3,.29-3.6.45-3.8.59l8.85-.22Z" transform="translate(-42.99 -315.03)" style="fill:#ed1c24"/><path d="M433.41,403c-1.39.47-5.7.79-3,1.17,5.27-.19,3.68-.47,6.83-.76-8.51.37,2.44-.31-3.72-.37,1.67-.12,3.17-.19,4.59-.25-1.53,0-3,0-4.41-.06l.2,0h0c.37,0,.49.07.08.05h-.18a1.08,1.08,0,0,1-.38.17c-2.47,0-.39-.1.38-.17,0,0,.09,0,.1-.07h0l-8.52.5C427.15,403.27,429.41,403.19,433.41,403Z" transform="translate(-42.99 -315.03)" style="fill:#ed1c24"/><path d="M476.26,404c-.26-.06-.25-.09-.26-.12C475.44,403.89,475.23,403.9,476.26,404Z" transform="translate(-42.99 -315.03)" style="fill:#ed1c24"/><path d="M472.76,403.54a13.41,13.41,0,0,1,3.18,0c1.75.28,0,.2.06.35,1.22,0,4.3.11.49-.48h-.61c-3.45-.42-7.92-.87-7.31-.94A23.13,23.13,0,0,0,472.76,403.54Z" transform="translate(-42.99 -315.03)" style="fill:#ed1c24"/><path d="M452.81,403.46c-2.32.18-4.71.3-7.07.45l3.63.26-.19-.22C453.22,403.92,452.32,403.65,452.81,403.46Z" transform="translate(-42.99 -315.03)" style="fill:#ed1c24"/><polygon points="371.04 88.3 371.97 87.81 367.89 88.58 371.04 88.3" style="fill:#ed1c24"/><polygon points="361.82 88.64 362.14 88.23 359.72 88.54 361.82 88.64" style="fill:#ed1c24"/><path d="M57.76,382.63l.07,2.08C57.81,383.73,57.79,383.09,57.76,382.63Z" transform="translate(-42.99 -315.03)" style="fill:#ed1c24"/><path d="M58.44,367.63l-.17-.38C58.33,367.95,58.39,368.24,58.44,367.63Z" transform="translate(-42.99 -315.03)" style="fill:#ed1c24"/><path d="M178.24,410.67c-3-.28-6.46-.74-6.08-.31l.95.4A48.28,48.28,0,0,1,178.24,410.67Z" transform="translate(-42.99 -315.03)" style="fill:#ed1c24"/><path d="M45,385.6l-.16.89.37,2.06C45.09,387.66,45,386.66,45,385.6Z" transform="translate(-42.99 -315.03)" style="fill:#ed1c24"/><path d="M43.27,383.36l.51-4C43.63,380.25,43.45,381.54,43.27,383.36Z" transform="translate(-42.99 -315.03)" style="fill:#ed1c24"/><path d="M118.29,402.17l2.42-.52C116.9,401.77,118.58,401.94,118.29,402.17Z" transform="translate(-42.99 -315.03)" style="fill:#ed1c24"/><path d="M310.33,406.73c-2.63-.09-4.72-.1-6.55-.06C306.95,406.82,309.51,407.12,310.33,406.73Z" transform="translate(-42.99 -315.03)" style="fill:#ed1c24"/><path d="M53.35,376.54c0,1.29.09,1.84.19,1.8C53.52,377,53.47,376.27,53.35,376.54Z" transform="translate(-42.99 -315.03)" style="fill:#ed1c24"/><path d="M296.21,406.9l1.39.06c1.91-.13,3.84-.25,6.18-.29A39.37,39.37,0,0,0,296.21,406.9Z" transform="translate(-42.99 -315.03)" style="fill:#ed1c24"/><path d="M417.42,393.34l.68,0C418.17,393.31,417.87,393.32,417.42,393.34Z" transform="translate(-42.99 -315.03)" style="fill:#ed1c24"/><path d="M500.56,406.09c-.61-.52-1.47-1.48-2.46-2.21l.94.8C499.43,405,499.92,405.51,500.56,406.09Z" transform="translate(-42.99 -315.03)" style="fill:#ed1c24"/><path d="M367.68,404.62c2-.09.31-.06,0,0Z" transform="translate(-42.99 -315.03)" style="fill:#ed1c24"/><path d="M377.25,406c-.41.06-.73.13-.78.23A2,2,0,0,1,377.25,406Z" transform="translate(-42.99 -315.03)" style="fill:#ed1c24"/><path d="M276.8,410.2h-.17C277.22,410.27,277.12,410.26,276.8,410.2Z" transform="translate(-42.99 -315.03)" style="fill:#ed1c24"/><path d="M370.63,404.72c-.74,0-1.58,0-2.51-.05C368.53,404.69,369.3,404.71,370.63,404.72Z" transform="translate(-42.99 -315.03)" style="fill:#ed1c24"/><path d="M370.23,404.53h1.71C372.19,404.44,372,404.4,370.23,404.53Z" transform="translate(-42.99 -315.03)" style="fill:#ed1c24"/><path d="M365,404.73c1.12,0,2.16-.05,3.17-.05-.39,0-.55,0-.44-.05Z" transform="translate(-42.99 -315.03)" style="fill:#ed1c24"/><path d="M257.19,399.42l.42,0C259.58,399.21,258.71,399.27,257.19,399.42Z" transform="translate(-42.99 -315.03)" style="fill:#ed1c24"/><path d="M127.46,416.74l.22,0h-.29Z" transform="translate(-42.99 -315.03)" style="fill:#ed1c24"/><path d="M120.44,417.28a26.26,26.26,0,0,1,7-.57L125,415.53Z" transform="translate(-42.99 -315.03)" style="fill:#ed1c24"/><path d="M71.94,404c-1.63-.05-3.21-.12-4.71-.31,2.71-.24,5.25-.56,6.52-.69s1.16-.23-1.18-.39c-.16.34-1.44.61-3.17.74a20.3,20.3,0,0,1-5.82-.33,6,6,0,0,1-3.66-2.23c-.41-.45-.68-1-1-1.34s-.45-.63-.64-.65c-.11-.43-.13-.92-.2-1.37s-.06-1-.09-1.43c.13.8.18,1,.36,1.7-.09-.65-.09-1.27-.16-1.75a11.57,11.57,0,0,0-.15-1.34,18.19,18.19,0,0,0-.42-2.05c-.34-1.34-.62-2.9-.42-7,.16-2.83.41-4.79.52-2.86-.05-2.1-.11-4.2-.13-6.31.1-1.83.32-1.37.22.45.08-3.2.22-6.4.38-9.6l0,.07c-.13-1.38-.25-4.51-.26-6,.39-2.42,0,1.23.27.62l.11-5.34c.55-2.13.48,2.3.15,6a13,13,0,0,0,.88-5.35,47.12,47.12,0,0,1,1-9.67l-.35,5c1.09-3.14,1.22-7.06,2.43-12.61-.44,1.29-2.56,11.12-2.22,5.35a50.16,50.16,0,0,0,.74-6.85c.48,0,.76-3,1.31-6.76l.59.35c.45-4.09.08-3.82.19-6.25l.15-.8.07-.37c0-.12,0-.33.06-.48a7.44,7.44,0,0,0,.08-1.8,6.28,6.28,0,0,0-.22-1.49,7.52,7.52,0,0,0-.35-1.17,12.13,12.13,0,0,0-.75-1.63,8.32,8.32,0,0,0-.7-1.16,7.51,7.51,0,0,0-1.47-1,5.49,5.49,0,0,0-1.05-.5c-.56-.19-.79-.24-.8-.21s.82.41,1.47.93,1.17,1,.91,1-.44-.24-1.09-.54a6.88,6.88,0,0,0-1.25-.5,8.46,8.46,0,0,0-1.92-.39,7,7,0,0,0-1.66,0l-.83.13c-.28.09-.55.19-.82.29a5.87,5.87,0,0,0-1.49.85A7.9,7.9,0,0,0,50.26,318a13.66,13.66,0,0,0-.78,1.43c-.14.47-.27,1-.39,1.43-.14.76-.21,1.38-.31,2.08-.37,2.75-.67,5.67-1,9.35-.83,4.24-.28-.8-.68.7l0,3.86c-.14.93-.25.61-.31.44-.22,3.22.59.35.13,5.39.52,1.43-2.23,10.22-1.91,16.56-.31,1.53-.33-.78-.62-.33-.13,8.63-.18,7.4.15,14.48-.23,2-.47,4-.74,5.94.76-4.36.93,1.28,1.18,6.24.29-1.55.57-2.87.72-3.76,0,2.62,0,5.24.08,7.83-.11.94-.33.16-.59-1.13l.15,1.44c-.19,2.8-.6,1.37-1-.66.13-1,.28-1.92.45-2.84-.33-2-.65-3.81-1-3.42,0,.52.06,1.51.05,2.6-.08-.52-.16-.85-.24-.61a12.17,12.17,0,0,0,.16,2.41L43,389.27l.28.44a53,53,0,0,0,.5,10.67,23.47,23.47,0,0,0,5.93,10.18,18.88,18.88,0,0,0,5.59,3.74,26.9,26.9,0,0,0,7.69,2c-1.48.05-1.68.19-1.53.46s.65.59.52.88c-1.59-.61-3.93-1-6.54-2.11a16.15,16.15,0,0,1-7.33-5.76,15.1,15.1,0,0,1,1.45,2.13c0,.17-.33-.08-.67-.39A19.79,19.79,0,0,0,59.24,417c-.39.42,2.3,1.05,5.25,1.51-1.07-.63,1.06-.51,4-.57s6.56-.26,8.73-.49c.27.31-.7.74-6.14.84a20.37,20.37,0,0,0,6.78-.49,21.7,21.7,0,0,1,6.66-.52,10.07,10.07,0,0,0-2.53.21c3-.39,10.53-.39,8.78,0l-1.31,0c8.69-.15,26.45-.81,27.72-1.7.09.11-1.11,1.06-1.63,1.25l15.42-3.34c-1.34.77,4,2.35-3.24,3a73.55,73.55,0,0,0,9-.31c-1.41-.06-3.55-.95-1.62-1.07,5.32.65,3.69.32,10.24.81-2.12-.09.2-1.31,3.54-1.37-.52.19.31,1.12-.91,1.28l8.29-1.38c-2.07.27-.34,1,1.53,1.22-.87-.19,7.19-.2,9.41-.38l-3.54-.15c9.4-.12,9.23-1.87,18.55-2.09-1.12.27-2.74,1.51,2,1.51A85.88,85.88,0,0,1,201.93,411l1.59.28,6.32-.57c-3.91,1-14.91,3.15-20.93,4,3.52.15,1,.36,6.26.17,1.87.25-2.86.56-4.4.62l12.26-.18c-.57-.66,9.35-1,8.87-1.51L198.6,415c-.56-.65,7.64-2.14,16.33-2.29,2.22.2-1.62,1.25-1.43,1.47a70.89,70.89,0,0,1,9-.56l-3.67.47c4.84.1,7.86-1.13,13.69-.67,2,0,6,.68,6.35.27-3.29-.67-4-3-1.84-3.66.7,0,10.55.41,12.85.72,3.32.5-4.91,1.59-2.09,2a11.11,11.11,0,0,1,2.69-.57c2.11.09-.85.6,3.72.37.74-.7,9.31-.23,2.15-.64,4.47-.33,4.76,0,10-.2-1.69-.39,4.67-1.64,9.15-2-.26.18.76.38,1.25.46,9.18-.22,14.11-.06,22.67-.32.79.14,4.93.21,3.18.56a38.77,38.77,0,0,1,5-.52c5.13.43-5.88.27-2,.86.32-.41,6.81-.76,10.56-1.12-1.18-.58-8.69.15-12.45.51,0-.84,6.48-1.93,15.42-2.59,7.1-.43,3.1.45,4.33.29,13.36-.26,11.33-1.82,22.43-1.55,4.42.4.23,1.06,1.22,1.42-5.78.38-8.9-.07-12.82.07l4.84.11a60,60,0,0,1-7.81.4c3.7.37,22.56-.6,32.87-.47,1.82-.24,5-.52,3.48-.69l-3.26.18c-3-.34,6.12-.79,2-.86a129.16,129.16,0,0,1,15.41-1l1.18.58a25.55,25.55,0,0,0-5.76,0c2.56-.35,9.46.54,12.25-.35l-4.33-.29a140.49,140.49,0,0,1,15.25-1.23c-2.5-.53-1.26.11-5.15-.48,3.39.78-14,.39-8.53,1.15-4-.7-6.89-.14-12.12-.68.17.2,1.85.33-2.73.37-.21.07-.69.16-1,.21h-.31l.25,0c-.2,0-.22,0,.09,0a14.61,14.61,0,0,1,2.34.24c-2.26.53-9.54.74-12,1.06-2.72,0,1.13-.27-.36-.44l-3.67.47c-.38-.44-7.24-.52-.85-1l-5.76.16a92.06,92.06,0,0,0-10.94.17c-2.72,0-6.85.71-4.49.28l-9,.56-.09-.11c-8.92.22-18.33,1.31-28.55.81-3,.21-6.1.44-11.12.47l-1-.36c-3.85.25-11.58,0-13.23.42-4.19-.92-18.71.35-25.49.37l-.24.51c-4.67.11-9.13.4-14.92.78l.37.44c-5,.52-12.85.08-20.74.36a18.2,18.2,0,0,1,4-.14c-9.47-.72-19.88,1.35-28.46.87a32,32,0,0,1-5.17.15l.53,0-.88,0-3-.15c.9.08,1.75.14,2.5.16-1.64.06-4.14.19-6.58.38l-1.06-.45-.56,0c-2.4-.1-1.92.29-.63.61-1.23.12-2.35.25-3.22.39-2-.72-6.41.46-9.09-.29-1.64.45-12.28.68-13.56,1.57-.09-.11-.81-.14.51-.19a61.45,61.45,0,0,0-7.89.29l-1.18-.58-5.93,1c-3.63-.26-5.13-.43-1.56-1-8.65,1-7,.49-14.37,1.43l.35-.41c-2.63.1-6.83.76-8.43.48-3-.29-10.25-.09-18.7.15l-13.16.36a58.4,58.4,0,0,1-12.12-.41c1.32.72-.36.48-2.34-.11s-4.1-1.68-4.52-1.43a13,13,0,0,1-1-.95c-.2-.24-.08-.27.9.14a12.86,12.86,0,0,1-5.8-5.47A50.38,50.38,0,0,1,48,400.12c.08-.86.75,1.4.74.65a9.59,9.59,0,0,1-.68-2.94c0-.75.37,1,.75,2.07-.78-3.52-1-5.61-1.45-6.79a2.8,2.8,0,0,0-1.2-1.79,37,37,0,0,0,0-8.8c.34-1.37.74-3.66.56,1.21.07-1.36.47-5.55.65-9.48s.35-7.46,0-7.62a31.42,31.42,0,0,0,.29-4.56c.53-6.15.64-6.68,1.19-12.72L48.62,351c-.52-2.46.35-5,.86-9.89l.06.15c1-5.52,1.11-6.72,1.22-7.91a57.63,57.63,0,0,1,1.4-7.77l-.57.52a3.51,3.51,0,0,1,0-2.1c.09-.53.21-1.13.36-1.79a6.22,6.22,0,0,1,.27-1,3.09,3.09,0,0,1,.39-.88l.26-.4c.11-.12.24-.21.35-.32a3.18,3.18,0,0,1,.79-.51,4.24,4.24,0,0,1,2-.18,5.48,5.48,0,0,1,3.39,2,4.19,4.19,0,0,0-.47-.8,7.63,7.63,0,0,0-.68-.71,3.42,3.42,0,0,1,1.63,1.93l.14.69c0,.24,0,.48,0,.71a2.66,2.66,0,0,1-.15.7l-.09.34-.15.44a54.29,54.29,0,0,0-2,6.48c-.21.75,0-1.23.15-2.31-2,9.1.42,1.28-.42,8.15-.51,1.22-.64-1.75-1.32,2.86-.61,2.28-.53,13.54-1.65,19.82.37-1.38.75-2.74.68.48-.32,4.9-1.89,13.22-1.21,17.71-.1.62-.17.86-.24.88l.11,7.81a44.52,44.52,0,0,0,.36,6.71,10.65,10.65,0,0,0-.08,5.4,13.9,13.9,0,0,0,1.42,4,9.84,9.84,0,0,0,3.21,3.53,5.12,5.12,0,0,0,1,.59c.35.16.69.36,1,.48.71.2,1.42.46,2.06.57a28.41,28.41,0,0,0,3.48.42c2,.13,3.24.2,3.23.59,2,0,3.92-.2,5.79-.28l5.75-.22-.3.17a68.72,68.72,0,0,0,12.53-1c1.71.05.47.23.33.32,10.77,0,11.83-.12,20.83-1.16l1,.47c2.44-.36,15.58.3,26.11-.6a3,3,0,0,1-1.15.26c11.85-.95,28.46.5,32.76-1.44l7.82-.69c-10.14.17,1.49-.83-2.69-1,4-.23,10.32.23,5.43.47l-.77-.07c-1.77,1,12.6-.05,12.35.6,19.94-.66,39.39-.74,58.08-1.27l-2.17-.67,6.52-.16c1.72.12,2.31.5-2.34.61a28.05,28.05,0,0,0,7.91-.75c9.11,0-3.53,1-.74.89l3.79-.17-.86-.06a51.54,51.54,0,0,1,8.91-.85c3.54,0,1.83.4,3.22.38a8.07,8.07,0,0,0,2.14,0l8.21-.19-3.3-.48c3.63-.4,7.72-.21,3.91-.74,5.59.84,30.63-.58,34.06-.37,5.08-.58,10.11-.72,16.35-.87-1.55-.07-2.5-.69,2.88-.78-1.92,1.4,9.86.28,14.23,1.11-3.9-.52,15.28-.63,9.16-1.35,4.49,0,.29.49,3.7.7,10.66-.85,23.53-.39,36.72-1,.2-.18-2-.38.8-.73l7,.67c2.6-.17,2.37-1.09,7.15-.62-.68-.13-1.69-.32.06-.43,6.47,0,13-.12,19.58-.32s13.21-.43,19.83-.81,13.22-.57,19.61.25,12.53,3.17,17.22,7.05c-1.26-1.06-1.44-1.31-1-1.09a15.68,15.68,0,0,1,2.39,1.65c-1.23-1.1.3-.32.2-.71l1,.89c.31.31.59.64.88,1s.59.63.85,1l.76,1a7.7,7.7,0,0,1,.71,1.06c.15.3.57.88.88,1.51a11.83,11.83,0,0,1,.85,2.19l.8,2.43a11.7,11.7,0,0,1,.81,2l.52,1.54.27.86.23.82a2.62,2.62,0,0,1,.55-.06h.14s0,0,.08,0l.1-.24.41-1,1.57-3.71a21.79,21.79,0,0,0,1.65-5.08c-.49,1.47-1,2.93-1.58,4.37.49-1.67.42-2.08.15-1.93a7.59,7.59,0,0,0-1.24,1.41,5.67,5.67,0,0,1-.7.78,2.22,2.22,0,0,1-.31.24l-.14.07s0,0,0,0l0-.13,0-.25a14.35,14.35,0,0,1-.24-2.66l-.08-.15c-.09-.26-.32-.64-.51-1.13-.1-.24-.19-.51-.31-.77l-.38-.81c-.13-.28-.24-.57-.38-.84l-.47-.85a20.35,20.35,0,0,0-1.62-2.4,20.68,20.68,0,0,0-10.21-7.22c-1.68-1,1.63.44.79-.21-2.22-.6-4.69-1.67-9.51-2.94l.57,0a56.28,56.28,0,0,0-9.16-1.28c-2.73-.18-5.24-.26-7.8-.29-5.11-.08-10.4.12-18,.23l1.14.44c-3.27,0-4-.09-5.5-.16-3.73.83,9.18-.24,5.79.65-4.36-.83-23.07.69-26-.31-5,.15,1.49.5-3.54.65l-1.34-.26-1.26.42c-3.3,0-5-.28-5.11-.53.8,0,2.27-.14,3.13-.19-4.29-.22-12.06.49-13.53.42l4.84,0c-13.73.7-30.51.83-43.75,1.83l1,.19c-10.12.72-8.12,0-19.24.54l.4-.07a81.1,81.1,0,0,1-8.23.56c2.8-.35-5.3-.35-1.63-.75-11,.78-5.42.52-12.65,1.57l-1.69-.32a45.19,45.19,0,0,1-8.22.86c4.55-.46-3.56-.46,1.53-1-11.68-.45-17.29,1.35-22.67.33-5.32,1.19,10.11.26,7.11.57,2.52.26-4.4.9-8.06.91s-6.37-1.12-15.74-.81c.93,0,1-.1,1.92-.13-3.51-.15-6.86.57-11.17.27-2.39.69-5.59.14-6.26.95l8.59-.45c-4.87.36-9.41,1.42-17.45,1.22.62-.18,3-.46,4.64-.63-2.35-.16-4.51.29-7,.13.67-.81,10.44-.49,15.64-1.26-2.53-.26-9.86.88-7.26-.06-3.74,1.21-9.24.15-15.55,1.17l.4-.49c-1,.11-3.07.39-4.92.44l3.33-.72c-5.12.68-9.92-.15-14.83.28,10.32-.33,2.33.5,6.71.71-12.7,1-7.35-1-21.59-.35,1.93-.13,7.25.06,4.24.37-2.71,0-6.3-.09-8-.28-9.43.39,1.46.44-2.54.86-3.23-.48-4.63.38-8.76.69l0-.48c-10.76,0-2.82,1.09-12.51,1l4.07-.79-5,.33,1-.58a94.48,94.48,0,0,1-12.58.53c1.26.3-.68.9-5.44,1.06-3.26-.19,1.81-.51-4.94-.24a15.42,15.42,0,0,1,6.13-.42c.3-.17,1.49-.35,1.8-.51-3.51-.22-8.79.2-11.24.27.94,0,2.07,0,2.65,0l-9.77,1c-1.55-.13-.33-.32.88-.5-2,.11-3.35.38-6.26.51.74-.42.55-.81,4.67-1.13l-9.31.72c-.63-.15-4.8-.32-3.59-.5-5.18-.07-12.66,1.15-19.52,1.06a17.66,17.66,0,0,1-2.52.28c-6.44.11-12.17-.2-19.79.58l-4.35-.57c-6,.34,5.89.71-4.06,1.28-7,.44-2.65-.52-5.13-.64-1.75.23-4.14.57-6.91.81a36.75,36.75,0,0,1-8.91.1C68.36,404.09,70,404.12,71.94,404ZM60.23,345.33c-.07,1.42-.06,4.27-.46,5.28C59.4,348.94,59.78,347.71,60.23,345.33ZM44.32,396.57a15.49,15.49,0,0,1-.22-4.64Zm301.93,9.1-.15,0C342.91,405.61,344,405.65,346.25,405.67Zm6.63,0c.66-.09.62-.15.33-.21a22,22,0,0,1-3.64.21A11.46,11.46,0,0,0,352.88,405.68ZM278.19,402l-1.29-.09C279.8,401.71,279,401.86,278.19,402Z" transform="translate(-42.99 -315.03)" style="fill:#ed1c24"/><path d="M43.46,383.67a1.06,1.06,0,0,1,.29-.6C43.7,382.5,43.61,382.48,43.46,383.67Z" transform="translate(-42.99 -315.03)" style="fill:#ed1c24"/><path d="M117.84,402.26h.22a.59.59,0,0,0,.22-.09Z" transform="translate(-42.99 -315.03)" style="fill:#ed1c24"/><path d="M250.46,412.91a21.36,21.36,0,0,1-2.64-.17C247.76,412.87,248.38,412.95,250.46,412.91Z" transform="translate(-42.99 -315.03)" style="fill:#ed1c24"/><path d="M387.93,403.78l-4.24.26a32.9,32.9,0,0,1,3.82,0C387.42,404,386.6,403.83,387.93,403.78Z" transform="translate(-42.99 -315.03)" style="fill:#ed1c24"/><path d="M424.83,405.63c.62-.08,1.31,0,1.92-.13l-.18-.22C423.93,405.38,422.09,405.62,424.83,405.63Z" transform="translate(-42.99 -315.03)" style="fill:#ed1c24"/><path d="M391.9,405.26c.35.4,3,.18,6,0l-.53,0C398.21,404.69,395,405,391.9,405.26Z" transform="translate(-42.99 -315.03)" style="fill:#ed1c24"/><path d="M398.56,405.23c.91,0,1.85-.09,2.75-.09C401.65,404.9,400.2,405.13,398.56,405.23Z" transform="translate(-42.99 -315.03)" style="fill:#ed1c24"/><path d="M361.26,405.15c1.41.06.87-.55,1.67-.4C364.49,404.18,353.56,405.66,361.26,405.15Z" transform="translate(-42.99 -315.03)" style="fill:#ed1c24"/><polygon points="351.36 91.49 350.28 91.02 348.63 91.48 351.36 91.49" style="fill:#ed1c24"/><path d="M370.89,406.88h4.75c-.07-.08.53-.15,1.27-.21A57.14,57.14,0,0,0,370.89,406.88Z" transform="translate(-42.99 -315.03)" style="fill:#ed1c24"/><path d="M376.9,406.66c1.52,0,3-.09,3.82-.2C379.9,406.49,378.12,406.56,376.9,406.66Z" transform="translate(-42.99 -315.03)" style="fill:#ed1c24"/><polygon points="344.87 91.84 343.47 91.78 340.12 91.85 344.87 91.84" style="fill:#ed1c24"/><path d="M319.87,408.35l-5.18.3c-.52.19.89.25,2.82.12C318.75,408.61,320.67,408.49,319.87,408.35Z" transform="translate(-42.99 -315.03)" style="fill:#ed1c24"/><path d="M335.57,409.24a10.76,10.76,0,0,1-2.3-.31l-.14.63Z" transform="translate(-42.99 -315.03)" style="fill:#ed1c24"/><path d="M320.47,409.84c-.51.19-7.5.73-.94.48C320.05,410.14,325.24,409.84,320.47,409.84Z" transform="translate(-42.99 -315.03)" style="fill:#ed1c24"/><polygon points="199.41 96.43 200.73 96.38 200.51 95.37 199.41 96.43" style="fill:#ed1c24"/><path d="M173.69,416c6.15.06,1.44-.67,7-.54,1.43-.28-4.54-.11-3.07-.36C173.92,415.47,172,415.39,173.69,416Z" transform="translate(-42.99 -315.03)" style="fill:#ed1c24"/><path d="M177.61,415.1c.59-.06,1.22-.13,1.89-.21C178.43,415,177.92,415.05,177.61,415.1Z" transform="translate(-42.99 -315.03)" style="fill:#ed1c24"/><path d="M509,418.36c.82-1.73,1.66-3.46,2.5-5.38-.58,1.16-1.16,2.2-1.7,3.19Z" transform="translate(-42.99 -315.03)" style="fill:#ed1c24"/><path d="M512.59,407l.91-.71.14-2.49A17.56,17.56,0,0,1,512.59,407Z" transform="translate(-42.99 -315.03)" style="fill:#ed1c24"/><path d="M62.94,334.69l-.11-.32a15.06,15.06,0,0,0-.68,3.3Z" transform="translate(-42.99 -315.03)" style="fill:#ed1c24"/><polygon points="15.28 72.61 15.32 71.67 14.68 73.39 15.28 72.61" style="fill:#ed1c24"/><path d="M85.68,402.25c-1.83,0-4,.23-5.83.26C83.85,402.28,86.2,403,85.68,402.25Z" transform="translate(-42.99 -315.03)" style="fill:#ed1c24"/></svg>