<?xml version="1.0" standalone="no"?>
<!DOCTYPE svg PUBLIC "-//W3C//DTD SVG 20010904//EN"
 "http://www.w3.org/TR/2001/REC-SVG-20010904/DTD/svg10.dtd">
<svg version="1.0" xmlns="http://www.w3.org/2000/svg"
 width="91.000000pt" height="91.000000pt" viewBox="0 0 91.000000 91.000000"
 preserveAspectRatio="xMidYMid meet">
<metadata>
Created by potrace 1.16, written by Peter Selinger 2001-2019
</metadata>
<g transform="translate(0.000000,91.000000) scale(0.100000,-0.100000)"
fill="#000000" stroke="none">
<path d="M140 455 l0 -255 103 0 c91 0 109 3 155 26 81 40 110 92 82 144 -6
11 -41 37 -78 59 -138 80 -156 149 -65 237 l47 44 -122 0 -122 0 0 -255z"/>
<path d="M531 692 c-63 -24 -111 -72 -111 -110 0 -49 9 -60 80 -102 89 -52
120 -89 120 -142 0 -35 -6 -47 -49 -89 l-48 -49 118 0 119 0 0 255 0 255 -92
-1 c-61 0 -108 -6 -137 -17z"/>
</g>
</svg>
